<svg version="1.1" xmlns="http://www.w3.org/2000/svg" xmlns:xlink="http://www.w3.org/1999/xlink" width="1081" height="638"><defs><clipPath id="iJoocvsLezhV"><path fill="none" stroke="none" d=" M 0 0 L 1081 0 L 1081 638 L 0 638 L 0 0 Z"/></clipPath></defs><g transform="scale(1,1)" clip-path="url(#iJoocvsLezhV)"><g><rect fill="rgb(255,255,255)" stroke="none" x="0" y="0" width="1082" height="639" fill-opacity="1"/><path fill="none" stroke="rgb(46,125,50)" paint-order="fill stroke markers" d=" M 100.61013025376656 225.04342930528733 L 339.1112973346417 87.34471628910433" stroke-opacity="0.6980392156862745" stroke-linecap="round" stroke-linejoin="round" stroke-miterlimit="10" stroke-width="2.5"/><path fill="none" stroke="rgb(211,47,47)" paint-order="fill stroke markers" d=" M 180.11051928072493 362.74214232147057 L 100.61013025376656 225.04342930528733" stroke-opacity="0.6980392156862745" stroke-linecap="round" stroke-linejoin="round" stroke-miterlimit="10" stroke-width="2.5"/><path fill="none" stroke="rgb(46,125,50)" paint-order="fill stroke markers" d=" M 180.11051928072493 362.74214232147057 L 339.1112973346417 362.74214232147057" stroke-opacity="0.6980392156862745" stroke-linecap="round" stroke-linejoin="round" stroke-miterlimit="10" stroke-width="2.5"/><path fill="none" stroke="rgb(46,125,50)" paint-order="fill stroke markers" d=" M 100.61013025376656 225.04342930528733 L 180.110519280725 87.34471628910433" stroke-opacity="0.6980392156862745" stroke-linecap="round" stroke-linejoin="round" stroke-miterlimit="10" stroke-width="2.5"/><path fill="none" stroke="rgb(211,47,47)" paint-order="fill stroke markers" d=" M 180.11051928072493 362.74214232147057 L 180.110519280725 87.34471628910433" stroke-opacity="0.6980392156862745" stroke-linecap="round" stroke-linejoin="round" stroke-miterlimit="10" stroke-width="2.5"/><path fill="none" stroke="rgb(211,47,47)" paint-order="fill stroke markers" d=" M 180.11051928072493 362.74214232147057 L 339.1112973346417 87.34471628910433" stroke-opacity="0.6980392156862745" stroke-linecap="round" stroke-linejoin="round" stroke-miterlimit="10" stroke-width="2.5"/><path fill="none" stroke="rgb(46,125,50)" paint-order="fill stroke markers" d=" M 180.11051928072493 362.74214232147057 L 418.61168636160005 225.04342930528748" stroke-opacity="0.6980392156862745" stroke-linecap="round" stroke-linejoin="round" stroke-miterlimit="10" stroke-width="2.5"/><path fill="none" stroke="rgb(46,125,50)" paint-order="fill stroke markers" d=" M 180.110519280725 87.34471628910433 L 339.1112973346417 87.34471628910433" stroke-opacity="0.6980392156862745" stroke-linecap="round" stroke-linejoin="round" stroke-miterlimit="10" stroke-width="2.5"/><path fill="rgb(0,0,0)" stroke="none" paint-order="stroke fill markers" d=" M 185.11051928072493 362.74214232147057 C 185.11051928072493 365.5035660706245 182.8719430298789 367.74214232147057 180.11051928072493 367.74214232147057 C 177.34909553157095 367.74214232147057 175.11051928072493 365.5035660706245 175.11051928072493 362.74214232147057 C 175.11051928072493 359.9807185723166 177.34909553157095 357.74214232147057 180.11051928072493 357.74214232147057 C 182.8719430298789 357.74214232147057 185.11051928072493 359.9807185723166 185.11051928072493 362.74214232147057 Z" fill-opacity="1"/><path fill="none" stroke="rgb(0,0,0)" paint-order="fill stroke markers" d=" M 185.11051928072493 362.74214232147057 C 185.11051928072493 365.5035660706245 182.8719430298789 367.74214232147057 180.11051928072493 367.74214232147057 C 177.34909553157095 367.74214232147057 175.11051928072493 365.5035660706245 175.11051928072493 362.74214232147057 C 175.11051928072493 359.9807185723166 177.34909553157095 357.74214232147057 180.11051928072493 357.74214232147057 C 182.8719430298789 357.74214232147057 185.11051928072493 359.9807185723166 185.11051928072493 362.74214232147057 Z" stroke-opacity="1" stroke-linecap="round" stroke-linejoin="round" stroke-miterlimit="10"/><path fill="rgb(0,0,0)" stroke="none" paint-order="stroke fill markers" d=" M 344.1112973346417 362.74214232147057 C 344.1112973346417 365.5035660706245 341.8727210837956 367.74214232147057 339.1112973346417 367.74214232147057 C 336.3498735854877 367.74214232147057 334.1112973346417 365.5035660706245 334.1112973346417 362.74214232147057 C 334.1112973346417 359.9807185723166 336.3498735854877 357.74214232147057 339.1112973346417 357.74214232147057 C 341.8727210837956 357.74214232147057 344.1112973346417 359.9807185723166 344.1112973346417 362.74214232147057 Z" fill-opacity="1"/><path fill="none" stroke="rgb(0,0,0)" paint-order="fill stroke markers" d=" M 344.1112973346417 362.74214232147057 C 344.1112973346417 365.5035660706245 341.8727210837956 367.74214232147057 339.1112973346417 367.74214232147057 C 336.3498735854877 367.74214232147057 334.1112973346417 365.5035660706245 334.1112973346417 362.74214232147057 C 334.1112973346417 359.9807185723166 336.3498735854877 357.74214232147057 339.1112973346417 357.74214232147057 C 341.8727210837956 357.74214232147057 344.1112973346417 359.9807185723166 344.1112973346417 362.74214232147057 Z" stroke-opacity="1" stroke-linecap="round" stroke-linejoin="round" stroke-miterlimit="10"/><path fill="rgb(0,0,0)" stroke="none" paint-order="stroke fill markers" d=" M 423.61168636160005 225.04342930528748 C 423.61168636160005 227.80485305444145 421.373110110754 230.04342930528748 418.61168636160005 230.04342930528748 C 415.8502626124461 230.04342930528748 413.61168636160005 227.80485305444145 413.61168636160005 225.04342930528748 C 413.61168636160005 222.2820055561335 415.8502626124461 220.04342930528748 418.61168636160005 220.04342930528748 C 421.373110110754 220.04342930528748 423.61168636160005 222.2820055561335 423.61168636160005 225.04342930528748 Z" fill-opacity="1"/><path fill="none" stroke="rgb(0,0,0)" paint-order="fill stroke markers" d=" M 423.61168636160005 225.04342930528748 C 423.61168636160005 227.80485305444145 421.373110110754 230.04342930528748 418.61168636160005 230.04342930528748 C 415.8502626124461 230.04342930528748 413.61168636160005 227.80485305444145 413.61168636160005 225.04342930528748 C 413.61168636160005 222.2820055561335 415.8502626124461 220.04342930528748 418.61168636160005 220.04342930528748 C 421.373110110754 220.04342930528748 423.61168636160005 222.2820055561335 423.61168636160005 225.04342930528748 Z" stroke-opacity="1" stroke-linecap="round" stroke-linejoin="round" stroke-miterlimit="10"/><path fill="rgb(0,0,0)" stroke="none" paint-order="stroke fill markers" d=" M 344.1112973346417 87.34471628910433 C 344.1112973346417 90.10614003825829 341.8727210837956 92.34471628910433 339.1112973346417 92.34471628910433 C 336.3498735854877 92.34471628910433 334.1112973346417 90.10614003825829 334.1112973346417 87.34471628910433 C 334.1112973346417 84.58329253995036 336.3498735854877 82.34471628910433 339.1112973346417 82.34471628910433 C 341.8727210837956 82.34471628910433 344.1112973346417 84.58329253995036 344.1112973346417 87.34471628910433 Z" fill-opacity="1"/><path fill="none" stroke="rgb(0,0,0)" paint-order="fill stroke markers" d=" M 344.1112973346417 87.34471628910433 C 344.1112973346417 90.10614003825829 341.8727210837956 92.34471628910433 339.1112973346417 92.34471628910433 C 336.3498735854877 92.34471628910433 334.1112973346417 90.10614003825829 334.1112973346417 87.34471628910433 C 334.1112973346417 84.58329253995036 336.3498735854877 82.34471628910433 339.1112973346417 82.34471628910433 C 341.8727210837956 82.34471628910433 344.1112973346417 84.58329253995036 344.1112973346417 87.34471628910433 Z" stroke-opacity="1" stroke-linecap="round" stroke-linejoin="round" stroke-miterlimit="10"/><path fill="rgb(0,0,0)" stroke="none" paint-order="stroke fill markers" d=" M 185.110519280725 87.34471628910433 C 185.110519280725 90.10614003825829 182.87194302987896 92.34471628910433 180.110519280725 92.34471628910433 C 177.349095531571 92.34471628910433 175.110519280725 90.10614003825829 175.110519280725 87.34471628910433 C 175.110519280725 84.58329253995036 177.349095531571 82.34471628910433 180.110519280725 82.34471628910433 C 182.87194302987896 82.34471628910433 185.110519280725 84.58329253995036 185.110519280725 87.34471628910433 Z" fill-opacity="1"/><path fill="none" stroke="rgb(0,0,0)" paint-order="fill stroke markers" d=" M 185.110519280725 87.34471628910433 C 185.110519280725 90.10614003825829 182.87194302987896 92.34471628910433 180.110519280725 92.34471628910433 C 177.349095531571 92.34471628910433 175.110519280725 90.10614003825829 175.110519280725 87.34471628910433 C 175.110519280725 84.58329253995036 177.349095531571 82.34471628910433 180.110519280725 82.34471628910433 C 182.87194302987896 82.34471628910433 185.110519280725 84.58329253995036 185.110519280725 87.34471628910433 Z" stroke-opacity="1" stroke-linecap="round" stroke-linejoin="round" stroke-miterlimit="10"/><path fill="rgb(0,0,0)" stroke="none" paint-order="stroke fill markers" d=" M 105.61013025376656 225.04342930528733 C 105.61013025376656 227.8048530544413 103.37155400292052 230.04342930528733 100.61013025376656 230.04342930528733 C 97.8487065046126 230.04342930528733 95.61013025376656 227.8048530544413 95.61013025376656 225.04342930528733 C 95.61013025376656 222.28200555613336 97.8487065046126 220.04342930528733 100.61013025376656 220.04342930528733 C 103.37155400292052 220.04342930528733 105.61013025376656 222.28200555613336 105.61013025376656 225.04342930528733 Z" fill-opacity="1"/><path fill="none" stroke="rgb(0,0,0)" paint-order="fill stroke markers" d=" M 105.61013025376656 225.04342930528733 C 105.61013025376656 227.8048530544413 103.37155400292052 230.04342930528733 100.61013025376656 230.04342930528733 C 97.8487065046126 230.04342930528733 95.61013025376656 227.8048530544413 95.61013025376656 225.04342930528733 C 95.61013025376656 222.28200555613336 97.8487065046126 220.04342930528733 100.61013025376656 220.04342930528733 C 103.37155400292052 220.04342930528733 105.61013025376656 222.28200555613336 105.61013025376656 225.04342930528733 Z" stroke-opacity="1" stroke-linecap="round" stroke-linejoin="round" stroke-miterlimit="10"/></g></g></svg>