<svg version="1.1" xmlns="http://www.w3.org/2000/svg" xmlns:xlink="http://www.w3.org/1999/xlink" width="1081" height="638"><defs><clipPath id="UKlqUTCBJTBs"><path fill="none" stroke="none" d=" M 0 0 L 1081 0 L 1081 638 L 0 638 L 0 0 Z"/></clipPath></defs><g transform="scale(1,1)" clip-path="url(#UKlqUTCBJTBs)"><g><rect fill="rgb(255,255,255)" stroke="none" x="0" y="0" width="1082" height="639" fill-opacity="1"/><path fill="none" stroke="rgb(46,125,50)" paint-order="fill stroke markers" d=" M 41.610130253766556 225.04342930528733 L 280.11129733464173 87.34471628910433" stroke-opacity="0.6980392156862745" stroke-linecap="round" stroke-linejoin="round" stroke-miterlimit="10" stroke-width="2.5"/><path fill="none" stroke="rgb(211,47,47)" paint-order="fill stroke markers" d=" M 121.11051928072494 362.74214232147057 L 41.610130253766556 225.04342930528733" stroke-opacity="0.6980392156862745" stroke-linecap="round" stroke-linejoin="round" stroke-miterlimit="10" stroke-width="2.5"/><path fill="none" stroke="rgb(211,47,47)" paint-order="fill stroke markers" d=" M 121.11051928072494 362.74214232147057 L 280.11129733464173 362.74214232147057" stroke-opacity="0.6980392156862745" stroke-linecap="round" stroke-linejoin="round" stroke-miterlimit="10" stroke-width="2.5"/><path fill="none" stroke="rgb(46,125,50)" paint-order="fill stroke markers" d=" M 41.610130253766556 225.04342930528733 L 121.110519280725 87.34471628910433" stroke-opacity="0.6980392156862745" stroke-linecap="round" stroke-linejoin="round" stroke-miterlimit="10" stroke-width="2.5"/><path fill="none" stroke="rgb(211,47,47)" paint-order="fill stroke markers" d=" M 121.11051928072494 362.74214232147057 L 121.110519280725 87.34471628910433" stroke-opacity="0.6980392156862745" stroke-linecap="round" stroke-linejoin="round" stroke-miterlimit="10" stroke-width="2.5"/><path fill="none" stroke="rgb(211,47,47)" paint-order="fill stroke markers" d=" M 121.11051928072494 362.74214232147057 L 280.11129733464173 87.34471628910433" stroke-opacity="0.6980392156862745" stroke-linecap="round" stroke-linejoin="round" stroke-miterlimit="10" stroke-width="2.5"/><path fill="none" stroke="rgb(211,47,47)" paint-order="fill stroke markers" d=" M 121.11051928072494 362.74214232147057 L 359.6116863616001 225.04342930528748" stroke-opacity="0.6980392156862745" stroke-linecap="round" stroke-linejoin="round" stroke-miterlimit="10" stroke-width="2.5"/><path fill="none" stroke="rgb(46,125,50)" paint-order="fill stroke markers" d=" M 121.110519280725 87.34471628910433 L 280.11129733464173 87.34471628910433" stroke-opacity="0.6980392156862745" stroke-linecap="round" stroke-linejoin="round" stroke-miterlimit="10" stroke-width="2.5"/><path fill="rgb(0,0,0)" stroke="none" paint-order="stroke fill markers" d=" M 126.11051928072494 362.74214232147057 C 126.11051928072494 365.5035660706245 123.8719430298789 367.74214232147057 121.11051928072494 367.74214232147057 C 118.34909553157098 367.74214232147057 116.11051928072494 365.5035660706245 116.11051928072494 362.74214232147057 C 116.11051928072494 359.9807185723166 118.34909553157098 357.74214232147057 121.11051928072494 357.74214232147057 C 123.8719430298789 357.74214232147057 126.11051928072494 359.9807185723166 126.11051928072494 362.74214232147057 Z" fill-opacity="1"/><path fill="none" stroke="rgb(0,0,0)" paint-order="fill stroke markers" d=" M 126.11051928072494 362.74214232147057 C 126.11051928072494 365.5035660706245 123.8719430298789 367.74214232147057 121.11051928072494 367.74214232147057 C 118.34909553157098 367.74214232147057 116.11051928072494 365.5035660706245 116.11051928072494 362.74214232147057 C 116.11051928072494 359.9807185723166 118.34909553157098 357.74214232147057 121.11051928072494 357.74214232147057 C 123.8719430298789 357.74214232147057 126.11051928072494 359.9807185723166 126.11051928072494 362.74214232147057 Z" stroke-opacity="1" stroke-linecap="round" stroke-linejoin="round" stroke-miterlimit="10"/><path fill="rgb(0,0,0)" stroke="none" paint-order="stroke fill markers" d=" M 285.11129733464173 362.74214232147057 C 285.11129733464173 365.5035660706245 282.8727210837957 367.74214232147057 280.11129733464173 367.74214232147057 C 277.3498735854878 367.74214232147057 275.11129733464173 365.5035660706245 275.11129733464173 362.74214232147057 C 275.11129733464173 359.9807185723166 277.3498735854878 357.74214232147057 280.11129733464173 357.74214232147057 C 282.8727210837957 357.74214232147057 285.11129733464173 359.9807185723166 285.11129733464173 362.74214232147057 Z" fill-opacity="1"/><path fill="none" stroke="rgb(0,0,0)" paint-order="fill stroke markers" d=" M 285.11129733464173 362.74214232147057 C 285.11129733464173 365.5035660706245 282.8727210837957 367.74214232147057 280.11129733464173 367.74214232147057 C 277.3498735854878 367.74214232147057 275.11129733464173 365.5035660706245 275.11129733464173 362.74214232147057 C 275.11129733464173 359.9807185723166 277.3498735854878 357.74214232147057 280.11129733464173 357.74214232147057 C 282.8727210837957 357.74214232147057 285.11129733464173 359.9807185723166 285.11129733464173 362.74214232147057 Z" stroke-opacity="1" stroke-linecap="round" stroke-linejoin="round" stroke-miterlimit="10"/><path fill="rgb(0,0,0)" stroke="none" paint-order="stroke fill markers" d=" M 364.6116863616001 225.04342930528748 C 364.6116863616001 227.80485305444145 362.37311011075406 230.04342930528748 359.6116863616001 230.04342930528748 C 356.85026261244616 230.04342930528748 354.6116863616001 227.80485305444145 354.6116863616001 225.04342930528748 C 354.6116863616001 222.2820055561335 356.85026261244616 220.04342930528748 359.6116863616001 220.04342930528748 C 362.37311011075406 220.04342930528748 364.6116863616001 222.2820055561335 364.6116863616001 225.04342930528748 Z" fill-opacity="1"/><path fill="none" stroke="rgb(0,0,0)" paint-order="fill stroke markers" d=" M 364.6116863616001 225.04342930528748 C 364.6116863616001 227.80485305444145 362.37311011075406 230.04342930528748 359.6116863616001 230.04342930528748 C 356.85026261244616 230.04342930528748 354.6116863616001 227.80485305444145 354.6116863616001 225.04342930528748 C 354.6116863616001 222.2820055561335 356.85026261244616 220.04342930528748 359.6116863616001 220.04342930528748 C 362.37311011075406 220.04342930528748 364.6116863616001 222.2820055561335 364.6116863616001 225.04342930528748 Z" stroke-opacity="1" stroke-linecap="round" stroke-linejoin="round" stroke-miterlimit="10"/><path fill="rgb(0,0,0)" stroke="none" paint-order="stroke fill markers" d=" M 285.11129733464173 87.34471628910433 C 285.11129733464173 90.10614003825829 282.8727210837957 92.34471628910433 280.11129733464173 92.34471628910433 C 277.3498735854878 92.34471628910433 275.11129733464173 90.10614003825829 275.11129733464173 87.34471628910433 C 275.11129733464173 84.58329253995036 277.3498735854878 82.34471628910433 280.11129733464173 82.34471628910433 C 282.8727210837957 82.34471628910433 285.11129733464173 84.58329253995036 285.11129733464173 87.34471628910433 Z" fill-opacity="1"/><path fill="none" stroke="rgb(0,0,0)" paint-order="fill stroke markers" d=" M 285.11129733464173 87.34471628910433 C 285.11129733464173 90.10614003825829 282.8727210837957 92.34471628910433 280.11129733464173 92.34471628910433 C 277.3498735854878 92.34471628910433 275.11129733464173 90.10614003825829 275.11129733464173 87.34471628910433 C 275.11129733464173 84.58329253995036 277.3498735854878 82.34471628910433 280.11129733464173 82.34471628910433 C 282.8727210837957 82.34471628910433 285.11129733464173 84.58329253995036 285.11129733464173 87.34471628910433 Z" stroke-opacity="1" stroke-linecap="round" stroke-linejoin="round" stroke-miterlimit="10"/><path fill="rgb(0,0,0)" stroke="none" paint-order="stroke fill markers" d=" M 126.110519280725 87.34471628910433 C 126.110519280725 90.10614003825829 123.87194302987896 92.34471628910433 121.110519280725 92.34471628910433 C 118.34909553157104 92.34471628910433 116.110519280725 90.10614003825829 116.110519280725 87.34471628910433 C 116.110519280725 84.58329253995036 118.34909553157104 82.34471628910433 121.110519280725 82.34471628910433 C 123.87194302987896 82.34471628910433 126.110519280725 84.58329253995036 126.110519280725 87.34471628910433 Z" fill-opacity="1"/><path fill="none" stroke="rgb(0,0,0)" paint-order="fill stroke markers" d=" M 126.110519280725 87.34471628910433 C 126.110519280725 90.10614003825829 123.87194302987896 92.34471628910433 121.110519280725 92.34471628910433 C 118.34909553157104 92.34471628910433 116.110519280725 90.10614003825829 116.110519280725 87.34471628910433 C 116.110519280725 84.58329253995036 118.34909553157104 82.34471628910433 121.110519280725 82.34471628910433 C 123.87194302987896 82.34471628910433 126.110519280725 84.58329253995036 126.110519280725 87.34471628910433 Z" stroke-opacity="1" stroke-linecap="round" stroke-linejoin="round" stroke-miterlimit="10"/><path fill="rgb(0,0,0)" stroke="none" paint-order="stroke fill markers" d=" M 46.610130253766556 225.04342930528733 C 46.610130253766556 227.8048530544413 44.37155400292052 230.04342930528733 41.610130253766556 230.04342930528733 C 38.848706504612586 230.04342930528733 36.610130253766556 227.8048530544413 36.610130253766556 225.04342930528733 C 36.610130253766556 222.28200555613336 38.848706504612586 220.04342930528733 41.610130253766556 220.04342930528733 C 44.37155400292052 220.04342930528733 46.610130253766556 222.28200555613336 46.610130253766556 225.04342930528733 Z" fill-opacity="1"/><path fill="none" stroke="rgb(0,0,0)" paint-order="fill stroke markers" d=" M 46.610130253766556 225.04342930528733 C 46.610130253766556 227.8048530544413 44.37155400292052 230.04342930528733 41.610130253766556 230.04342930528733 C 38.848706504612586 230.04342930528733 36.610130253766556 227.8048530544413 36.610130253766556 225.04342930528733 C 36.610130253766556 222.28200555613336 38.848706504612586 220.04342930528733 41.610130253766556 220.04342930528733 C 44.37155400292052 220.04342930528733 46.610130253766556 222.28200555613336 46.610130253766556 225.04342930528733 Z" stroke-opacity="1" stroke-linecap="round" stroke-linejoin="round" stroke-miterlimit="10"/></g></g></svg>